<?xml version="1.0" encoding="UTF-8" standalone="no"?>
<!-- Created with Inkscape (http://www.inkscape.org/) -->

<svg
   xmlns:dc="http://purl.org/dc/elements/1.1/"
   xmlns:cc="http://creativecommons.org/ns#"
   xmlns:rdf="http://www.w3.org/1999/02/22-rdf-syntax-ns#"
   xmlns:svg="http://www.w3.org/2000/svg"
   xmlns="http://www.w3.org/2000/svg"
   xmlns:sodipodi="http://sodipodi.sourceforge.net/DTD/sodipodi-0.dtd"
   xmlns:inkscape="http://www.inkscape.org/namespaces/inkscape"
   width="137.15961mm"
   height="30.97621mm"
   viewBox="0 0 137.15961 30.97621"
   version="1.1"
   id="svg1251"
   inkscape:version="0.92.4 (5da689c313, 2019-01-14)"
   sodipodi:docname="disegno.svg">
  <defs
     id="defs1245" />
  <sodipodi:namedview
     id="base"
     pagecolor="#ffffff"
     bordercolor="#666666"
     borderopacity="1.0"
     inkscape:pageopacity="0.0"
     inkscape:pageshadow="2"
     inkscape:zoom="0.35"
     inkscape:cx="-1511.7744"
     inkscape:cy="-38.605134"
     inkscape:document-units="mm"
     inkscape:current-layer="layer1"
     showgrid="false"
     inkscape:window-width="2736"
     inkscape:window-height="1699"
     inkscape:window-x="-13"
     inkscape:window-y="-13"
     inkscape:window-maximized="1" />
  <metadata
     id="metadata1248">
    <rdf:RDF>
      <cc:Work
         rdf:about="">
        <dc:format>image/svg+xml</dc:format>
        <dc:type
           rdf:resource="http://purl.org/dc/dcmitype/StillImage" />
        <dc:title />
      </cc:Work>
    </rdf:RDF>
  </metadata>
  <g
     inkscape:label="Livello 1"
     inkscape:groupmode="layer"
     id="layer1"
     transform="translate(-38.009479,-137.88094)">
    <g
       transform="translate(15.895864,-79.694448)"
       style="display:inline"
       id="g1235"
       inkscape:export-filename="C:\Users\Giorgio Romani\Desktop\MTIC LOGO_50th.png"
       inkscape:export-xdpi="600"
       inkscape:export-ydpi="600">
      <path
         inkscape:connector-curvature="0"
         id="path23-4-5"
         d="m 150.69555,225.09032 c -4.49499,1e-5 -8.13889,3.64391 -8.13889,8.13889 0,4.49498 3.64391,8.13888 8.13889,8.13889 4.49497,-1e-5 8.13888,-3.64391 8.13888,-8.13889 0,-4.49498 -3.6439,-8.13888 -8.13888,-8.13889 z m -0.36834,3.10751 c 0.13655,-0.002 0.27519,0.003 0.41573,0.0152 3.0015,-0.16124 5.3173,2.88435 4.90585,5.7501 -0.23364,3.80805 -5.25524,5.47164 -8.05833,3.24468 -3.7498,-2.40547 -1.49637,-8.95392 2.73675,-9.00999 z"
         style="fill:#1a2c6b;fill-opacity:1;stroke-width:0.22159272" />
      <text
         id="text4610-0-8"
         y="247.03258"
         x="142.21928"
         style="font-style:normal;font-variant:normal;font-weight:bold;font-stretch:normal;font-size:5.63464069px;line-height:1.25;font-family:'Universal Condensed';-inkscape-font-specification:'Universal Condensed, Bold';letter-spacing:0.98606217px;word-spacing:0px;fill:#1a2c6b;fill-opacity:1;stroke:none;stroke-width:0.14086601"
         xml:space="preserve"><tspan
           style="letter-spacing:0.98606217px;fill:#1a2c6b;fill-opacity:1;stroke-width:0.14086601"
           y="247.03258"
           x="142.21928"
           id="tspan4608-4-2"
           sodipodi:role="line">YEARS</tspan></text>
      <rect
         y="221.12291"
         x="131.92238"
         height="3.1240854"
         width="8.9383259"
         id="rect4612-1-7"
         style="fill:#1a2c6b;fill-opacity:1;stroke-width:0.08676913" />
      <rect
         y="217.90681"
         x="124.70701"
         height="30.644787"
         width="0.41411871"
         id="rect4708-2-6"
         style="fill:#1a2c6b;fill-opacity:1;stroke-width:0.08282374" />
      <path
         id="path4863-5-3"
         d="m 131.94519,225.15001 a 10.086167,10.086167 0 0 0 -0.0325,0.002 v 3.08955 c 0.12538,0.007 0.25163,0.0172 0.37886,0.0324 4.45149,-0.11691 7.49537,4.99636 6.34394,9.02552 -0.70737,3.12705 -3.72288,4.81652 -6.7228,4.81785 v 3.20441 a 10.086167,10.086167 0 0 0 0.0325,0.001 10.086167,10.086167 0 0 0 10.08622,-10.08622 10.086167,10.086167 0 0 0 -10.08622,-10.08621 z"
         style="fill:#1a2c6b;fill-opacity:1;stroke:none;stroke-width:0.08895437;stroke-opacity:1"
         inkscape:connector-curvature="0" />
      <g
         transform="matrix(0.18615866,0,0,-0.18615866,85.989583,221.1963)"
         id="g12-4-3">
        <path
           inkscape:connector-curvature="0"
           id="path14-6-3"
           style="fill:#1a2c6b;fill-opacity:1;fill-rule:nonzero;stroke:none"
           d="m 0,0 h -25.662 -43.396 -25.661 v -37.667 h 25.661 v -57.051 h 43.396 v 57.051 H 0 Z" />
      </g>
      <path
         inkscape:connector-curvature="0"
         id="path16-3-9"
         style="fill:#1a2c6b;fill-opacity:1;fill-rule:nonzero;stroke:none;stroke-width:0.18615866"
         d="m 87.976362,238.82899 h 8.078543 v -17.63276 h -8.078543 z" />
      <g
         transform="matrix(0.18615866,0,0,-0.18615866,66.736887,221.19613)"
         id="g18-7-0">
        <path
           inkscape:connector-curvature="0"
           id="path20-8-0"
           style="fill:#1a2c6b;fill-opacity:1;fill-rule:nonzero;stroke:none"
           d="M 0,0 H -61.369 L -84.44,-23.069 -107.535,0.002 h -36.829 l 72.194,-72.172 18.414,18.414 10.361,10.361 V -94.719 H 0 Z" />
      </g>
      <g
         transform="translate(-8.3928642,111.58814)"
         id="g1124-3-5">
        <g
           id="g30-8-1"
           transform="matrix(0.18615866,0,0,-0.18615866,37.556419,128.73369)">
          <path
             d="M 0,0 C 5.281,-9.646 11.954,-15.455 19.035,-16.68 V 14.752 C 10.396,14.568 2.237,13.555 -5.068,11.877 -3.671,7.596 -1.975,3.607 0,0"
             style="fill:#33b540;fill-opacity:1;fill-rule:nonzero;stroke:none"
             id="path32-4-0"
             inkscape:connector-curvature="0" />
        </g>
        <g
           id="g34-4-3"
           transform="matrix(0.18615866,0,0,-0.18615866,36.317496,125.49738)">
          <path
             d="M 0,0 C 7.75,1.783 16.409,2.84 25.69,3.02 V 22.832 H -3.032 C -2.836,14.816 -1.798,7.094 0,0"
             style="fill:#33b540;fill-opacity:1;fill-rule:nonzero;stroke:none"
             id="path36-4-8"
             inkscape:connector-curvature="0" />
        </g>
        <g
           id="g38-0-0"
           transform="matrix(0.18615866,0,0,-0.18615866,35.753007,120.19512)">
          <path
             d="M 0,0 H 28.722 V 20.027 C 19.462,20.207 10.818,21.256 3.08,23.031 1.251,15.886 0.199,8.092 0,0"
             style="fill:#33b540;fill-opacity:1;fill-rule:nonzero;stroke:none"
             id="path40-9-6"
             inkscape:connector-curvature="0" />
        </g>
        <g
           id="g42-8-5"
           transform="matrix(0.18615866,0,0,-0.18615866,37.556419,112.70806)">
          <path
             d="m 0,0 c -1.948,-3.553 -3.621,-7.475 -5.005,-11.682 7.29,-1.668 15.427,-2.676 24.04,-2.855 V 16.677 C 11.954,15.454 5.281,9.646 0,0"
             style="fill:#33b540;fill-opacity:1;fill-rule:nonzero;stroke:none"
             id="path44-2-9"
             inkscape:connector-curvature="0" />
        </g>
        <g
           id="g46-2-2"
           transform="matrix(0.18615866,0,0,-0.18615866,35.314696,115.64532)">
          <path
             d="M 0,0 C -5.883,1.709 -11.134,3.858 -15.571,6.386 -21.591,-2.485 -25.3,-13.053 -25.828,-24.44 H -3.267 C -3.064,-15.881 -1.949,-7.61 0,0"
             style="fill:#33b540;fill-opacity:1;fill-rule:nonzero;stroke:none"
             id="path48-4-6"
             inkscape:connector-curvature="0" />
        </g>
        <g
           id="g50-9-4"
           transform="matrix(0.18615866,0,0,-0.18615866,36.638713,112.20284)">
          <path
             d="M 0,0 C 2.446,4.464 5.199,8.211 8.179,11.22 -2.636,7.662 -12.103,1.099 -19.222,-7.498 c 3.912,-2.13 8.54,-3.98 13.702,-5.485 C -4.005,-8.312 -2.161,-3.946 0,0"
             style="fill:#33b540;fill-opacity:1;fill-rule:nonzero;stroke:none"
             id="path52-0-8"
             inkscape:connector-curvature="0" />
        </g>
        <g
           id="g54-2-3"
           transform="matrix(0.18615866,0,0,-0.18615866,47.636985,114.61981)">
          <path
             d="m 0,0 c 5.164,1.508 9.787,3.354 13.7,5.488 -7.119,8.594 -16.586,15.158 -27.399,18.717 2.98,-3.013 5.733,-6.758 8.178,-11.222 C -3.359,9.037 -1.516,4.672 0,0"
             style="fill:#33b540;fill-opacity:1;fill-rule:nonzero;stroke:none"
             id="path56-3-9"
             inkscape:connector-curvature="0" />
        </g>
        <g
           id="g58-7-8"
           transform="matrix(0.18615866,0,0,-0.18615866,35.600301,126.7863)">
          <path
             d="m 0,0 c -5.195,-1.521 -9.838,-3.391 -13.76,-5.543 7.131,-8.664 16.644,-15.275 27.516,-18.855 -2.978,3.011 -5.732,6.759 -8.177,11.222 C 3.388,-9.176 1.524,-4.744 0,0"
             style="fill:#33b540;fill-opacity:1;fill-rule:nonzero;stroke:none"
             id="path60-7-7"
             inkscape:connector-curvature="0" />
        </g>
        <g
           id="g62-7-3"
           transform="matrix(0.18615866,0,0,-0.18615866,34.706591,121.24699)">
          <path
             d="m 0,0 h -22.562 c 0.527,-11.328 4.197,-21.848 10.163,-30.689 4.449,2.548 9.696,4.736 15.613,6.46 C 1.3,-16.68 0.199,-8.482 0,0"
             style="fill:#33b540;fill-opacity:1;fill-rule:nonzero;stroke:none"
             id="path64-9-3"
             inkscape:connector-curvature="0" />
        </g>
        <g
           id="g66-9-8"
           transform="matrix(0.18615866,0,0,-0.18615866,46.609296,129.23909)">
          <path
             d="M 0,0 C -2.445,-4.463 -5.198,-8.211 -8.179,-11.223 2.693,-7.643 12.207,-1.031 19.338,7.633 15.418,9.787 10.772,11.654 5.579,13.176 4.055,8.432 2.192,4 0,0"
             style="fill:#33b540;fill-opacity:1;fill-rule:nonzero;stroke:none"
             id="path68-2-6"
             inkscape:connector-curvature="0" />
        </g>
        <g
           id="g70-7-8"
           transform="matrix(0.18615866,0,0,-0.18615866,48.541958,120.19512)">
          <path
             d="M 0,0 H 22.558 C 22.029,11.39 18.32,21.955 12.301,30.828 7.861,28.301 2.614,26.15 -3.269,24.441 -1.321,16.832 -0.202,8.561 0,0"
             style="fill:#33b540;fill-opacity:1;fill-rule:nonzero;stroke:none"
             id="path72-2-9"
             inkscape:connector-curvature="0" />
        </g>
        <g
           id="g74-7-5"
           transform="matrix(0.18615866,0,0,-0.18615866,47.942769,125.75916)">
          <path
             d="m 0,0 c 5.912,-1.721 11.173,-3.896 15.621,-6.447 5.962,8.843 9.631,19.359 10.155,30.685 H 3.219 C 3.019,15.752 1.915,7.555 0,0"
             style="fill:#33b540;fill-opacity:1;fill-rule:nonzero;stroke:none"
             id="path76-8-2"
             inkscape:connector-curvature="0" />
        </g>
        <g
           id="g78-7-1"
           transform="matrix(0.18615866,0,0,-0.18615866,46.921801,115.90803)">
          <path
             d="M 0,0 C -7.737,-1.771 -16.383,-2.821 -25.64,-3 V -23.03 H 3.08 C 2.882,-14.938 1.828,-7.144 0,0"
             style="fill:#33b540;fill-opacity:1;fill-rule:nonzero;stroke:none"
             id="path80-5-1"
             inkscape:connector-curvature="0" />
        </g>
        <g
           id="g82-1-5"
           transform="matrix(0.18615866,0,0,-0.18615866,46.635302,126.52233)">
          <path
             d="m 0,0 c -7.307,1.676 -15.462,2.689 -24.101,2.873 v -31.432 c 7.078,1.227 13.753,7.036 19.035,16.68 C -3.09,-8.271 -1.396,-4.283 0,0"
             style="fill:#33b540;fill-opacity:1;fill-rule:nonzero;stroke:none"
             id="path84-8-0"
             inkscape:connector-curvature="0" />
        </g>
        <g
           id="g86-2-8"
           transform="matrix(0.18615866,0,0,-0.18615866,45.691962,112.70806)">
          <path
             d="m 0,0 c -5.281,9.644 -11.954,15.454 -19.033,16.677 v -31.214 c 8.611,0.179 16.745,1.189 24.036,2.855 C 3.618,-7.475 1.946,-3.553 0,0"
             style="fill:#33b540;fill-opacity:1;fill-rule:nonzero;stroke:none"
             id="path88-5-2"
             inkscape:connector-curvature="0" />
        </g>
        <g
           id="g90-5-8"
           transform="matrix(0.18615866,0,0,-0.18615866,47.495188,121.24699)">
          <path
             d="m 0,0 h -28.72 v -19.812 c 9.281,-0.178 17.94,-1.237 25.688,-3.018 C -1.234,-15.738 -0.196,-8.018 0,0"
             style="fill:#33b540;fill-opacity:1;fill-rule:nonzero;stroke:none"
             id="path92-3-8"
             inkscape:connector-curvature="0" />
        </g>
      </g>
      <g
         transform="matrix(0.18615866,0,0,-0.18615866,115.05086,227.4958)"
         id="g94-6-8">
        <path
           inkscape:connector-curvature="0"
           id="path96-8-1"
           style="fill:#1a2c6b;fill-opacity:1;fill-rule:nonzero;stroke:none"
           d="m 0,0 v 33.841 h -49.118 -41.04 V -60.877 H 0 v 35.79 H -49.118 V 0 Z" />
      </g>
      <path
         inkscape:connector-curvature="0"
         id="path98-9-6"
         style="fill:#1a2c6b;fill-opacity:1;fill-rule:nonzero;stroke:none;stroke-width:0.18615866"
         d="m 68.420581,241.21647 h 0.599803 v 4.17014 h -0.599803 z" />
      <g
         transform="matrix(0.18615866,0,0,-0.18615866,74.729257,245.38667)"
         id="g100-9-8">
        <path
           inkscape:connector-curvature="0"
           id="path102-6-7"
           style="fill:#1a2c6b;fill-opacity:1;fill-rule:nonzero;stroke:none"
           d="M 0,0 -9.814,15.763 V 0 h -3.222 v 22.401 h 2.953 L -0.269,6.67 V 22.401 H 2.953 V 0 Z" />
      </g>
      <g
         transform="matrix(0.18615866,0,0,-0.18615866,79.899514,241.78457)"
         id="g104-9-4">
        <path
           inkscape:connector-curvature="0"
           id="path106-1-0"
           style="fill:#1a2c6b;fill-opacity:1;fill-rule:nonzero;stroke:none"
           d="M 0,0 V -19.35 H -3.222 V 0 H -9.068 V 3.052 H 5.847 V 0 Z" />
      </g>
      <g
         transform="matrix(0.18615866,0,0,-0.18615866,83.920467,245.38667)"
         id="g108-2-9">
        <path
           inkscape:connector-curvature="0"
           id="path110-8-8"
           style="fill:#1a2c6b;fill-opacity:1;fill-rule:nonzero;stroke:none"
           d="M 0,0 V 22.401 H 13.573 V 19.35 H 3.222 v -6.545 h 8.83 V 9.785 H 3.222 V 3.051 H 13.573 V 0 Z" />
      </g>
      <g
         transform="matrix(0.18615866,0,0,-0.18615866,91.006691,241.78457)"
         id="g112-2-3">
        <path
           inkscape:connector-curvature="0"
           id="path114-5-3"
           style="fill:#1a2c6b;fill-opacity:1;fill-rule:nonzero;stroke:none"
           d="M 0,0 H -4.773 V -7.017 H 0 c 2.148,0 3.609,1.29 3.609,3.494 C 3.609,-1.321 2.148,0 0,0 m 3.729,-19.35 -4.475,9.439 H -4.773 V -19.35 H -7.995 V 3.052 h 8.234 c 4.027,0 6.592,-2.738 6.592,-6.544 0,-3.209 -1.849,-5.255 -4.236,-5.947 l 4.892,-9.911 z" />
      </g>
      <g
         transform="matrix(0.18615866,0,0,-0.18615866,96.682425,245.42193)"
         id="g116-1-5">
        <path
           inkscape:connector-curvature="0"
           id="path118-8-4"
           style="fill:#1a2c6b;fill-opacity:1;fill-rule:nonzero;stroke:none"
           d="m 0,0 c -2.208,0 -4.117,0.85 -5.578,2.392 -2.089,2.202 -2.059,4.688 -2.059,8.999 0,4.31 -0.03,6.795 2.059,8.998 1.461,1.541 3.37,2.39 5.578,2.39 3.908,0 6.832,-2.422 7.577,-6.89 H 4.296 c -0.507,2.265 -1.939,3.84 -4.296,3.84 -1.253,0 -2.386,-0.504 -3.132,-1.354 -1.044,-1.195 -1.283,-2.486 -1.283,-6.984 0,-4.5 0.239,-5.79 1.283,-6.986 C -2.386,3.556 -1.253,3.053 0,3.053 c 2.357,0 3.818,1.572 4.326,3.838 H 7.577 C 6.861,2.423 3.848,0 0,0" />
      </g>
      <g
         transform="matrix(0.18615866,0,0,-0.18615866,101.14196,245.38667)"
         id="g120-8-4">
        <path
           inkscape:connector-curvature="0"
           id="path122-9-3"
           style="fill:#1a2c6b;fill-opacity:1;fill-rule:nonzero;stroke:none"
           d="M 0,0 V 22.401 H 13.573 V 19.35 H 3.222 v -6.545 h 8.83 V 9.785 H 3.222 V 3.051 H 13.573 V 0 Z" />
      </g>
      <g
         transform="matrix(0.18615866,0,0,-0.18615866,108.22826,241.78457)"
         id="g124-7-9">
        <path
           inkscape:connector-curvature="0"
           id="path126-5-1"
           style="fill:#1a2c6b;fill-opacity:1;fill-rule:nonzero;stroke:none"
           d="M 0,0 H -4.773 V -7.017 H 0 c 2.148,0 3.609,1.29 3.609,3.494 C 3.609,-1.321 2.148,0 0,0 m 3.729,-19.35 -4.475,9.439 H -4.773 V -19.35 H -7.995 V 3.052 h 8.234 c 4.027,0 6.592,-2.738 6.592,-6.544 0,-3.209 -1.85,-5.255 -4.236,-5.947 l 4.892,-9.911 z" />
      </g>
      <g
         transform="matrix(0.18615866,0,0,-0.18615866,113.965,241.78457)"
         id="g128-5-3">
        <path
           inkscape:connector-curvature="0"
           id="path130-2-2"
           style="fill:#1a2c6b;fill-opacity:1;fill-rule:nonzero;stroke:none"
           d="M 0,0 V -19.35 H -3.222 V 0 H -9.068 V 3.052 H 5.847 V 0 Z" />
      </g>
      <g
         id="g3567-7-6"
         transform="matrix(0.26598776,0,0,-0.26598776,-14.09946,344.64208)">
        <g
           id="g122-8-9"
           transform="translate(503.1497,469.3468)">
          <path
             d="m 0,0 c 0,-4.265 -3.458,-7.723 -7.723,-7.723 -4.27,0 -7.729,3.458 -7.729,7.723 0,4.271 3.459,7.729 7.729,7.729 C -3.458,7.729 0,4.271 0,0 Z"
             style="fill:none;stroke:#1a2c6b;stroke-width:1.28100002;stroke-linecap:butt;stroke-linejoin:miter;stroke-miterlimit:10;stroke-dasharray:none;stroke-opacity:1"
             id="path124-7-3"
             inkscape:connector-curvature="0" />
        </g>
        <g
           id="g126-5-2"
           transform="translate(493.5301,469.8175)">
          <path
             d="M 0,0 H 1.214 C 2.57,0 3.371,0.506 3.371,1.312 3.371,2.07 2.685,2.553 1.37,2.553 H 0 Z m -1.427,3.612 h 2.442 c 1.97,0 3.866,-0.265 3.866,-2.277 0,-1.023 -0.896,-1.747 -2.055,-1.911 V -0.6 c 0.441,-0.147 0.659,-0.329 0.97,-0.847 L 5.682,-4.794 H 4.056 l -1.53,2.918 C 2.085,-1.059 1.615,-1.059 0.855,-1.059 H 0 v -3.735 h -1.427 z"
             style="fill:#1a2c6b;fill-opacity:1;fill-rule:nonzero;stroke:none"
             id="path128-8-6"
             inkscape:connector-curvature="0" />
        </g>
      </g>
    </g>
  </g>
</svg>
